<svg width="28" height="32" viewBox="0 0 28 32" fill="none" xmlns="http://www.w3.org/2000/svg">
<path d="M21 10V7.05C21 6.13075 20.8189 5.22049 20.4672 4.37121C20.1154 3.52194 19.5998 2.75026 18.9497 2.10025C18.2997 1.45024 17.5281 0.934625 16.6788 0.582842C15.8295 0.231059 14.9193 0.0499992 14 0.0499992C13.0807 0.0499992 12.1705 0.231059 11.3212 0.582842C10.4719 0.934625 9.70026 1.45024 9.05025 2.10025C8.40024 2.75026 7.88463 3.52194 7.53284 4.37121C7.18106 5.22049 7 6.13075 7 7.05V14.05C7 14.3152 7.10536 14.5696 7.29289 14.7571C7.48043 14.9446 7.73478 15.05 8 15.05C8.26522 15.05 8.51957 14.9446 8.70711 14.7571C8.89464 14.5696 9 14.3152 9 14.05V12H17V10H9V7.05C9 5.72392 9.52678 4.45215 10.4645 3.51447C11.4021 2.57678 12.6739 2.05 14 2.05C15.3261 2.05 16.5979 2.57678 17.5355 3.51447C18.4732 4.45215 19 5.72392 19 7.05V14C19 14.2652 19.1054 14.5196 19.2929 14.7071C19.4804 14.8946 19.7348 15 20 15C20.2652 15 20.5196 14.8946 20.7071 14.7071C20.8946 14.5196 21 14.2652 21 14V12H26V30H2V12H5V10H0V30.09C0 30.5966 0.201231 31.0824 0.559426 31.4406C0.91762 31.7988 1.40344 32 1.91 32H26.09C26.5966 32 27.0824 31.7988 27.4406 31.4406C27.7988 31.0824 28 30.5966 28 30.09V10H21Z" fill="#F8F8F8"/>
</svg>
