<svg width="29" height="30" viewBox="0 0 29 30" fill="none" xmlns="http://www.w3.org/2000/svg">
<path d="M21.7526 0H7.24752C3.25127 0 0 3.34964 0 7.4668V22.5331C0 26.65 3.25127 30 7.24752 30H21.7526C25.7488 30 29 26.65 29 22.5331V7.46677C29 3.34964 25.7488 3.00637e-05 21.7526 3.00637e-05V0ZM26.3158 22.5331C26.3158 25.1252 24.2688 27.2344 21.7526 27.2344H7.24755C4.73131 27.2344 2.68429 25.1252 2.68429 22.5331V12.8023H8.41824C7.99962 13.7176 7.76418 14.7387 7.76418 15.8154C7.76418 19.7265 10.8524 22.9079 14.6484 22.9079C18.4444 22.9079 21.5327 19.7265 21.5327 15.8154C21.5327 14.7387 21.2972 13.7176 20.8785 12.8023H26.3158V22.5331H26.3158ZM11.7906 15.8155C11.7906 14.1922 13.0726 12.8714 14.6485 12.8714C16.2244 12.8714 17.5063 14.1923 17.5063 15.8155C17.5063 17.4391 16.2244 18.7597 14.6485 18.7597C13.0726 18.7597 11.7906 17.4391 11.7906 15.8155V15.8155ZM26.3158 10.0369H18.6324C17.5068 9.21101 16.1324 8.72313 14.6485 8.72313C13.1645 8.72313 11.79 9.21101 10.6646 10.0369H2.68429V7.4668C2.68429 4.87443 4.73131 2.76549 7.24755 2.76549H21.7526C24.2688 2.76549 26.3158 4.87443 26.3158 7.4668V10.0369H26.3159H26.3158ZM23.4072 4.44271H20.919C20.4759 4.44271 20.1137 4.81607 20.1137 5.27235V7.83595C20.1137 8.2922 20.4759 8.66559 20.919 8.66559H23.4072C23.8502 8.66559 24.2124 8.2922 24.2124 7.83595V5.27235C24.2124 4.81607 23.8502 4.44271 23.4072 4.44271Z" fill="black"/>
</svg>
