<svg width="40" height="32" viewBox="0 0 40 32" fill="none" xmlns="http://www.w3.org/2000/svg">
<path d="M37.7034 2.67838L29.8348 9.33919M10.1632 22.6608L2.29461 29.3216M37.7821 16.6283L38.9604 25.9313C39.0449 26.5981 38.9938 27.2778 38.8111 27.919C38.6283 28.5603 38.3188 29.1462 37.9058 29.6324C37.4928 30.1187 36.9872 30.4925 36.4273 30.7256C35.8674 30.9587 35.2678 31.045 34.674 30.9779L20.3924 29.366C20.1321 29.3367 19.8699 29.3367 19.6095 29.366L5.326 30.9779C4.73218 31.045 4.13262 30.9587 3.57271 30.7256C3.0128 30.4925 2.50722 30.1187 2.09423 29.6324C1.68124 29.1462 1.37166 28.5603 1.18894 27.919C1.00622 27.2778 0.955142 26.5981 1.03957 25.9313L2.21789 16.6283C2.27068 16.2116 2.27068 15.7884 2.21789 15.3717L1.03957 6.06873C0.955199 5.40214 1.00625 4.72261 1.18886 4.08156C1.37148 3.44052 1.68087 2.85474 2.09363 2.36855C2.5064 1.88235 3.01172 1.50848 3.57138 1.2752C4.13103 1.04193 4.73037 0.955365 5.32403 1.02206L19.6076 2.63398C19.8679 2.66336 20.1302 2.66336 20.3905 2.63398L34.674 1.02206C35.2678 0.955003 35.8674 1.0413 36.4273 1.27441C36.9872 1.50752 37.4928 1.88135 37.9058 2.36759C38.3188 2.85382 38.6283 3.43973 38.8111 4.08096C38.9938 4.72219 39.0449 5.40193 38.9604 6.06873L37.7821 15.3717C37.7293 15.7884 37.7293 16.2116 37.7821 16.6283V16.6283Z" stroke="#F8F8F8" stroke-width="1.5" stroke-linecap="round" stroke-linejoin="round"/>
</svg>
