<svg width="41" height="24" viewBox="0 0 41 24" fill="none" xmlns="http://www.w3.org/2000/svg">
<path d="M9.10001 10.7V3.4C9.10001 2.2 10.1 1.3 11.3 1.3H30.7C31.9 1.3 32.9 2.3 32.9 3.4V10.7" stroke="#F8F8F8" stroke-linecap="round" stroke-linejoin="round"/>
<path d="M9.99999 16.5C9.49999 16.5 9.09999 16.1 9.09999 15.6V10.6C9.09999 10.1 8.69999 9.7 8.19999 9.7H4.39999C2.49999 9.7 1.09999 11 1.49999 12.1C2.49999 14.5 5.69999 21.4 5.69999 21.4C6.09999 22.2 7.09999 22.6 7.69999 22.6H33.5C34.7 22.6 35.8 22.1 36.2 21.4C36.2 21.4 39.4 14.4 40.4 12.1C40.8 11.1 39.5 9.7 37.5 9.7H33.7C33.2 9.7 32.8 10.1 32.8 10.6V15.6C32.8 16.1 32.4 16.5 31.9 16.5H9.99999V16.5Z" stroke="#F8F8F8" stroke-miterlimit="10" stroke-linecap="round" stroke-linejoin="round"/>
</svg>
