<svg width="30" height="29" viewBox="0 0 30 29" fill="none" xmlns="http://www.w3.org/2000/svg">
<path d="M30 3.43993C28.8968 4.02123 27.7116 4.41401 26.4657 4.59154C27.7513 3.67684 28.713 2.23721 29.1716 0.541269C27.9638 1.39435 26.6419 1.99483 25.2634 2.3166C24.3364 1.13964 23.1085 0.359535 21.7704 0.0973956C20.4324 -0.164744 19.059 0.10575 17.8634 0.866882C16.6679 1.62801 15.7171 2.8372 15.1588 4.30671C14.6004 5.77621 14.4656 7.42382 14.7754 8.99373C12.328 8.84761 9.93389 8.09122 7.74829 6.77363C5.5627 5.45605 3.63451 3.60672 2.08888 1.34567C1.56038 2.42972 1.2565 3.68659 1.2565 5.02516C1.25591 6.23018 1.50546 7.41674 1.98302 8.47956C2.46057 9.54239 3.15136 10.4486 3.9941 11.1178C3.01675 11.0809 2.06096 10.7668 1.20629 10.2019V10.2962C1.20619 11.9862 1.69783 13.6243 2.59779 14.9324C3.49775 16.2406 4.7506 17.1382 6.14375 17.4729C5.2371 17.7647 4.28654 17.8077 3.36387 17.5986C3.75693 19.0528 4.52259 20.3245 5.55364 21.2355C6.5847 22.1466 7.82954 22.6515 9.11389 22.6795C6.93363 24.7147 4.24102 25.8187 1.46922 25.8138C0.978219 25.814 0.487637 25.7799 0 25.7117C2.81354 27.8628 6.08871 29.0044 9.43363 29C20.7566 29 26.9466 17.8484 26.9466 8.17676C26.9466 7.86255 26.94 7.54519 26.9281 7.23097C28.1322 6.19558 29.1715 4.91345 29.9974 3.44464L30 3.43993V3.43993Z" fill="black"/>
</svg>
