<svg width="43" height="46" viewBox="0 0 43 46" fill="none" xmlns="http://www.w3.org/2000/svg">
<g filter="url(#filter0_d_1_3)">
<path d="M32.7823 35.7431C33.3863 36.2081 34.1799 36.3756 34.9885 36.2087C35.7972 36.0419 36.5546 35.5544 37.0942 34.8535C37.6338 34.1526 37.9114 33.2957 37.8658 32.4712C37.8203 31.6468 37.4553 30.9224 36.8513 30.4574L24.1507 20.68M24.1507 20.68C23.68 20.3176 23.2959 19.8506 23.0219 19.3067C22.7479 18.7628 22.5886 18.1521 22.5531 17.5095C22.5176 16.867 22.6066 16.2051 22.8149 15.5617C23.0233 14.9183 23.3471 14.3059 23.7676 13.7596C24.1882 13.2133 24.6974 12.7437 25.2661 12.3777C25.8348 12.0117 26.4519 11.7564 27.0822 11.6263C27.7125 11.4963 28.3436 11.4941 28.9395 11.6199C29.5353 11.7457 30.0843 11.9969 30.5551 12.3594C29.6043 11.6274 29.0299 10.4872 28.9582 9.18944C28.8865 7.89171 29.3234 6.54282 30.1728 5.4395C31.0221 4.33619 32.2144 3.56882 33.4873 3.30623C34.7602 3.04363 36.0095 3.30731 36.9603 4.03926C33.1571 1.11146 28.1601 0.056749 23.0685 1.10713C17.9769 2.15752 13.2078 5.22696 9.81027 9.64022C6.41277 14.0535 4.66522 19.4491 4.95205 24.64C5.23888 29.8309 7.53659 34.3919 11.3397 37.3197C10.3889 36.5878 9.81451 35.4475 9.74281 34.1498C9.6711 32.852 10.108 31.5032 10.9574 30.3998C11.8067 29.2965 12.999 28.5292 14.2719 28.2666C15.5448 28.004 16.7941 28.2676 17.7449 28.9996C16.7941 28.2676 16.2196 27.1274 16.1479 25.8297C16.0762 24.5319 16.5131 23.183 17.3625 22.0797C18.2119 20.9764 19.4042 20.209 20.6771 19.9465C21.95 19.6839 23.1999 19.9481 24.1507 20.68Z" stroke="#F8F8F8" stroke-linecap="round" stroke-linejoin="round" shape-rendering="crispEdges"/>
</g>
<defs>
<filter id="filter0_d_1_3" x="0.421577" y="0.210445" width="41.9491" height="45.6093" filterUnits="userSpaceOnUse" color-interpolation-filters="sRGB">
<feFlood flood-opacity="0" result="BackgroundImageFix"/>
<feColorMatrix in="SourceAlpha" type="matrix" values="0 0 0 0 0 0 0 0 0 0 0 0 0 0 0 0 0 0 127 0" result="hardAlpha"/>
<feOffset dy="4"/>
<feGaussianBlur stdDeviation="2"/>
<feComposite in2="hardAlpha" operator="out"/>
<feColorMatrix type="matrix" values="0 0 0 0 0 0 0 0 0 0 0 0 0 0 0 0 0 0 0.25 0"/>
<feBlend mode="normal" in2="BackgroundImageFix" result="effect1_dropShadow_1_3"/>
<feBlend mode="normal" in="SourceGraphic" in2="effect1_dropShadow_1_3" result="shape"/>
</filter>
</defs>
</svg>
